# xmcd
#
# Track frame offsets:
#	150
#	17102
#	34675
#	50980
#	65592
#	82597
#	99027
#	116777
#	133667
#	150335
#	189866
#	206811
#	224586
#	242313
#	268376
#
# Disc length: 3857 seconds
#
# Revision: 10
# Processed by: cddbd v1.5.2PL0 Copyright (c) Steve Scherf et al.
# Submitted via: EasyCDDAExtractor 15.3.0.1
#
DISCID=cd0f0f0f
DTITLE=Thalia - Thalia 2
DYEAR=2003
DGENRE=Pop
TTITLE0=I Want You (Featuring Fat Joe)
TTITLE1=Baby, I'm In Love
TTITLE2=Misbehavin'
TTITLE3=Don't Look Back
TTITLE4=Another Girl
TTITLE5=What's It Gonna Be Boy
TTITLE6=Closer To You
TTITLE7=Save The Day
TTITLE8=Tu Y Yo (English Version)
TTITLE9=Dance Dance (The Mexican) (Hex Hector Club Mix)
TTITLE10=Me Pones Sexy (I Want You) (Featuring Fat Joe)
TTITLE11=Alguien Real (Baby, I'm In Love)
TTITLE12=Cerca De Ti (Closer To You)
TTITLE13=Toda La Felicidad (Don't Look Back)
TTITLE14=Data
EXTD=YEAR: 2003
EXTT0=
EXTT1=
EXTT2=
EXTT3=
EXTT4=
EXTT5=
EXTT6=
EXTT7=
EXTT8=
EXTT9=
EXTT10=
EXTT11=
EXTT12=
EXTT13=
EXTT14=
PLAYORDER=
